<?xml version="1.0" encoding="utf-8"?>
<!-- Generator: Adobe Illustrator 23.0.6, SVG Export Plug-In . SVG Version: 6.00 Build 0)  -->
<svg version="1.1" id="Layer_1" xmlns="http://www.w3.org/2000/svg" xmlns:xlink="http://www.w3.org/1999/xlink" x="0px" y="0px"
	 viewBox="0 0 162 162" style="enable-background:new 0 0 162 162;" xml:space="preserve">
<style type="text/css">
	.st0{fill:#007B3B;}
	.st1{fill:#FFFFFF;}
</style>
<g>
	<path class="st0" d="M148.89,81.12c0,37.43-30.34,67.77-67.77,67.77s-67.77-30.34-67.77-67.77S43.7,13.36,81.12,13.36
		S148.89,43.7,148.89,81.12"/>
	<path class="st1" d="M81.12,19.51c34.03,0,61.62,27.59,61.62,61.62c0,34.03-27.59,61.62-61.62,61.62
		c-34.03,0-61.62-27.59-61.62-61.62C19.5,47.09,47.09,19.51,81.12,19.51 M81.12,16.59c-17.24,0-33.45,6.71-45.64,18.9
		c-12.19,12.19-18.9,28.4-18.9,45.64s6.71,33.45,18.9,45.64c12.19,12.19,28.4,18.9,45.64,18.9s33.45-6.71,45.64-18.9
		c12.19-12.19,18.9-28.4,18.9-45.64s-6.71-33.45-18.9-45.64C114.57,23.3,98.36,16.59,81.12,16.59z"/>
</g>
<g>
	<g>
		<path class="st1" d="M65.99,100.49C65.99,100.49,65.99,100.49,65.99,100.49C65.99,100.49,65.99,100.49,65.99,100.49
			C65.98,100.48,65.98,100.48,65.99,100.49L65.99,100.49"/>
		<polyline class="st1" points="113.54,68.26 111.17,74.8 114.79,74.8 115.68,72.29 119.22,72.29 119.22,90.23 117.21,90.24 
			115.75,94.27 125.72,94.28 127.21,90.24 124.42,90.23 124.41,72.3 128.58,72.3 128.57,74.8 131.08,74.79 133.45,68.25 
			113.54,68.26 		"/>
		<path class="st1" d="M108.87,72.29l0.01,22l-3.07,0c0,0-14.28-15.05-15.24-16.06c0,2.13-0.01,12.02-0.01,12.02h2.82l-1.46,4.06
			h-9.21l1.47-4.06h1.58l0-17.94H82.4l1.46-4.05h5.65c0,0,10.92,11.39,14.71,15.4c0-1.23-0.01-11.35-0.01-11.35l-2.74,0l1.44-4.06
			h9.44l-1.46,4.06L108.87,72.29"/>
		<path class="st1" d="M67.59,103.57c-0.36-0.13-1,0.14-1,0.14c-0.15-0.91-1.18-2.17-1.18-2.17S67.46,103.45,67.59,103.57
			c0.02-0.05,0.66-1.43-0.63-2.63c-1.93-1.79-5.61-5.16-5.61-5.14c0.26,0.82,1.74,3.49,0.96,8.43l1.9,0.36l0.23,0.38
			c0,0,2.17,0.29,2.51,0.61c0,0,0.75,0.52-0.05,1.24c0,0,1.23-0.24,1.92-0.91c0,0,0.63-0.54-0.11-1.3L67.59,103.57"/>
		<path class="st1" d="M57.35,91.96L30.14,66.56c-1.31-1.27-0.79-2.89-0.79-2.89l-2.23,4.9c-0.6,1.54,0.32,2.51,0.96,3.03
			c0.64,0.52,21.72,17.57,21.72,17.57l0.02,0.71L28.87,73.8c-1.04-0.79-0.92-2.06-0.92-2.06l-1.52,3.12
			c-0.74,1.76,1.08,2.88,1.84,3.4c0.76,0.52,21.64,15.07,21.64,15.07l0.18,0.87c0,0-20.25-13.47-20.99-13.93
			c-0.9-0.55-0.83-1.83-0.83-1.83l-1.48,3.17c-0.62,1.29,1.15,2.19,1.93,2.66c0.46,0.28,11.79,7.04,21.12,12.58l-12.11,0
			c-1.78,0-2.38-0.53-2.38-0.53l1.62,1.52c0.28,0.25,1.01,1.17,2.07,1.17c0.76,0,4.47,0.01,4.47,0.01l0.88,0.38l-3.9,0.3
			c-0.78,0.03-0.99,0.12-2.02-0.46c-0.01-0.01,1.73,1.69,1.73,1.69c0.48,0.41,0.87,0.82,1.7,0.75c0.83-0.07,5.72-0.88,5.72-0.88
			l0.78,0.35l-5.13,1.12c-1.17,0.26-2.01-0.34-2.01-0.34s0.97,0.95,1.61,1.57c0.67,0.64,1.26,1.04,3.38,0.45
			c0.84-0.24,5.01-1.56,5.01-1.56l2.69,1.17c2.7,3.74,6.06,5.72,6.06,5.72c-0.64,0.76-0.1,1.65-0.1,1.65
			c0.56-1.13,1.81-1.75,2.75-1.62c0.82,0.12,0.6,1.12,0.63,1.08c0.51-0.64,0.92-1.41,0.41-2.07c-0.62-0.79-2.21-0.11-2.21-0.11
			l-1.55-2.83l2.1-1.2C63.2,96.91,57.35,91.96,57.35,91.96"/>
		<path class="st1" d="M73.39,68.25l-1.5,4.05l2.53-0.01v11.76c0,2.16-0.39,3.37-1.45,4.44c-0.83,0.84-2.24,1.37-3.69,1.37
			c-1.75,0-3.32-0.59-4.3-1.61c-0.99-0.98-1.47-2.59-1.47-4.93l0-15.07l-7.34,0.02l-1.49,4.03l3.13-0.02v11.2c0,0.06,0,0.11,0,0.16
			c-0.79-1.03-1.51-1.79-1.89-2.24c-0.35-0.41-12.99-14.6-12.99-14.6c-1.09-1.21-0.71-2.16-0.68-2.23l-1.47,3.3
			c-0.33,0.91,0.28,1.5,0.74,2.02c0.45,0.52,13.72,14.39,13.72,14.39l-0.09,0.76L42.58,72.5c-1.01-1.04-0.73-1.82-0.69-1.93
			l-1.35,3.04c-0.31,0.94,0.66,1.56,1.33,2.21c0.71,0.68,14.7,13.76,15.84,14.8c2.45,2.23,3.64,5.17,3.64,5.17
			c0.21-1.1,0.27-2.15,0.2-3.17c2.51,1.95,5.59,2.19,6.96,2.19c6.5,0,10.7-4.2,10.7-10.7l0.03-11.82h1.87l1.45-4.05H73.39z"/>
		<path class="st1" d="M41.89,70.57l0.01-0.01C41.9,70.56,41.89,70.56,41.89,70.57"/>
	</g>
	<g>
		<g>
			<path class="st1" d="M132.86,73.91c0.18-0.03,0.27-0.14,0.27-0.29c0-0.21-0.12-0.31-0.37-0.31h-0.42v1.11h0.12v-0.5h0.26
				l0.32,0.49l0,0.01h0.13L132.86,73.91z M132.68,73.81h-0.22v-0.4h0.29c0.08,0,0.26,0.02,0.26,0.2
				C133.01,73.79,132.84,73.81,132.68,73.81z"/>
		</g>
		<path class="st1" d="M132.69,72.93c-0.51,0-0.93,0.42-0.93,0.93c0,0.51,0.42,0.93,0.93,0.93c0.51,0,0.93-0.42,0.93-0.93
			C133.62,73.35,133.21,72.93,132.69,72.93z M132.69,74.71c-0.47,0-0.84-0.37-0.84-0.85c0-0.48,0.36-0.85,0.84-0.85
			c0.48,0,0.84,0.36,0.84,0.85C133.53,74.33,133.16,74.71,132.69,74.71z"/>
	</g>
</g>
</svg>
