<svg id="Layer_1" data-name="Layer 1" xmlns="http://www.w3.org/2000/svg" viewBox="0 0 162 162"><defs><style>.cls-1{fill:#007b3b;}.cls-2{fill:#fff;}</style></defs><title>Circle with Lettermark Wordmark Diving Eagle</title><path class="cls-1" d="M148.89,81.13A67.77,67.77,0,1,1,81.13,13.36a67.77,67.77,0,0,1,67.77,67.77"/><path class="cls-2" d="M81.13,19.51A61.62,61.62,0,1,1,19.5,81.13,61.62,61.62,0,0,1,81.13,19.51m0-2.92A64.54,64.54,0,0,0,35.49,126.76a64.54,64.54,0,0,0,91.27-91.27A64.12,64.12,0,0,0,81.13,16.59Z"/><path class="cls-2" d="M66,94.81h0"/><path class="cls-2" d="M79,100.9a2.24,2.24,0,0,1-1.85-.74c-.24-.39-.24-.67-.24-2.23V96.75c0-.15-.26-.17-.38-.17H76.5l.11-.3h0l.86,0,.79,0-.12.3c-.16,0-.41,0-.41.26v2c0,.58,0,1.56,1.23,1.56.91,0,1.34-.45,1.34-1.42V96.75c0-.16-.33-.16-.33-.16l.11-.3h0l.61,0c.26,0,.62,0,.62,0l-.11.3h-.08c-.11,0-.3,0-.3.26l0,2a2.4,2.4,0,0,1-.41,1.46,1.94,1.94,0,0,1-1.39.56"/><path class="cls-2" d="M85.92,100.8c-.62-.69-1-1.1-1.29-1.4l-.4-.43-.46-.51c-.44-.49-.79-.88-1-1,0,.32,0,1.58,0,1.58l0,1.79-.44,0-.61,0,.12-.29c.14,0,.37,0,.37-.23v-.19c0-.17,0-.45,0-1V96.8c0-.2-.22-.22-.31-.22l.08-.3h0l.31,0,.34,0c1.3,1.47,1.3,1.47,1.3,1.48s1.39,1.48,1.75,1.86c0-.57,0-2.63,0-2.63l0-.69h0l.48,0c.23,0,.58,0,.58,0l-.11.3c-.09,0-.43,0-.43.19,0,0,0,1.82,0,2.34s0,1.29,0,1.68l-.41,0Z"/><path class="cls-2" d="M87.75,100.5h.07c.11,0,.29,0,.29-.17V96.78c0-.18-.26-.21-.41-.21h-.09l.1-.3h0c.08,0,.41,0,.75,0s.76,0,.76,0l-.11.3c-.14,0-.29,0-.29.21v3.54c0,.07,0,.11.14.14a.82.82,0,0,0,.24,0h.08l-.11.29h0c-.07,0-.35,0-.72,0s-.81,0-.81,0h0Z"/><path class="cls-2" d="M91.79,100.81s-.47-1.08-1-2.26c-.32-.71-.68-1.42-.84-1.72l0-.09a.37.37,0,0,0-.35-.18h-.08l.11-.3h0s.23,0,.44,0a4.12,4.12,0,0,0,.46,0L91.78,99a6.38,6.38,0,0,1,.36,1c0-.17.64-1.57.64-1.58l.73-1.58a3.43,3.43,0,0,0,.19-.53h0l.45,0a3.74,3.74,0,0,0,.43,0l-.12.3c-.12,0-.3,0-.48.43l-.63,1.35-1.09,2.46Z"/><path class="cls-2" d="M99.66,96.68s0,1.38,0,1.49c.77,0,1.19-.37,1.19-.94s-.51-.57-.89-.57a1.19,1.19,0,0,0-.31,0m3.57,4.2a2.15,2.15,0,0,1-1.89-.76c-.83-.91-1.68-1.86-1.7-1.89,0,.18,0,1.59,0,2s0,.6,0,.6h0c-.06,0-.22,0-.45,0s-.74,0-.74,0l.11-.3a.52.52,0,0,0,.33-.08.12.12,0,0,0,0-.09V96.78c0-.19-.26-.21-.37-.21l.05-.29h0l.76,0h.32l.65,0c.42,0,1.23.17,1.23.82s-.64,1.09-1.23,1.26c1.83,1.88,2.24,2.17,3.1,2.17l.19,0a1.07,1.07,0,0,0,.95-.94c0-.33,0-.77-1-.83-.78,0-1.2-.4-1.22-1a1.32,1.32,0,0,1,.38-1,1.78,1.78,0,0,1,1.3-.52,1.31,1.31,0,0,1,.95.31l-.06.82-.3,0s-.07-.34-.07-.35-.32-.26-.77-.26a.72.72,0,0,0-.8.74c0,.46.32.69,1.05.76s1.18.44,1.18,1.06a1.93,1.93,0,0,1-2,1.64"/><path class="cls-2" d="M70.19,103.53a1.61,1.61,0,0,0-1.5.87,2.29,2.29,0,0,0-.18.93,1.73,1.73,0,0,0,.83,1.66,1.8,1.8,0,0,0,.94.26,1.72,1.72,0,0,0,1.65-1.94,1.6,1.6,0,0,0-.85-1.56,1.94,1.94,0,0,0-.91-.22M70,107.72a2,2,0,0,1-2.15-2.2,2.22,2.22,0,0,1,1.26-2.14,3,3,0,0,1,1.3-.3,1.94,1.94,0,0,1,2.14,2A2.5,2.5,0,0,1,70,107.72"/><path class="cls-2" d="M106.14,100.54h.07c.11,0,.29,0,.29-.17V96.81c0-.18-.22-.21-.35-.21h-.08l.1-.3h0c.06,0,.34,0,.67,0s.83,0,.83,0l-.11.3c-.15,0-.36,0-.36.21v3.55c0,.06,0,.11.13.14a.9.9,0,0,0,.24,0h.08l-.1.29h0c-.06,0-.35,0-.72,0s-.81,0-.81,0h0Z"/><path class="cls-2" d="M113.58,100.77l-.76,0,.11-.29s.38,0,.38-.19V99.07c0-.23-.18-.47-.45-.85l-.32-.45c-.72-1.06-.82-1.09-1.19-1.09s-.9,0-.93,0v3.62c0,.07,0,.11.13.14a.82.82,0,0,0,.24,0h.08l-.1.3h0c-.06,0-.35,0-.73,0s-.81,0-.81,0l.12-.3h.07c.11,0,.29,0,.29-.17V96.71h-1.13c-.25,0-.37.36-.37.36l-.19-.12.24-.66,1.74,0,1.79,0c.65,0,.81.27,1.18.92l.24.4.37.61.2.32c.08-.19.61-1,1-1.54l.34-.53a.58.58,0,0,0,.08-.18h0s.15,0,.28,0,.57,0,.57,0h0l0,.07a1.29,1.29,0,0,0-.51.4l-.2.27a7.61,7.61,0,0,0-1.3,2.17v1.15c0,.07,0,.11.12.14a.68.68,0,0,0,.23,0h.1l-.12.3Z"/><path class="cls-2" d="M73.41,107.32c.19,0,.4,0,.4-.32v-3.46c0-.15-.23-.17-.36-.17h-.1l.11-.29h0s.24,0,.69,0,1.54,0,1.54,0a.82.82,0,0,1,.5.1s0,.26,0,.45v.14s-.26.15-.28.16c0-.22-.1-.44-.71-.44h-.67a2,2,0,0,0,0,.33s0,1,0,1.16h1.59l-.19.44H74.5v1.71a.15.15,0,0,0,.12.14.66.66,0,0,0,.23,0H75l-.11.29h0c-.05,0-.29,0-.68,0s-.87,0-.87,0h0Z"/><path class="cls-2" d="M97,100.8l-1.55,0-.44,0h-.38l.12-.29s.35,0,.35-.32c0-.07,0-.22,0-.43,0-.41,0-1,0-1.59s0-.92,0-1.19v-.25c0-.15-.18-.17-.28-.17h-.08l.11-.29h0l.59,0c.51,0,1.53,0,1.53,0,.39,0,.5.1.51.1s0,.26,0,.45V97l-.27.16c0-.22-.1-.44-.71-.44h-.67a2.23,2.23,0,0,0,0,.33v1.16h1.61l-.21.48h-1.4v.9a6.93,6.93,0,0,0,0,.78H96l.63,0a7.15,7.15,0,0,0,.74,0s0-.57,0-.57l.39.27v.52a1.17,1.17,0,0,0,0,.26l-.11,0Z"/><path class="cls-2" d="M83,107.59c-.62-.69-1-1.09-1.28-1.39l-.41-.44-.37-.4c-.48-.53-.87-1-1-1.15,0,.32,0,1.58,0,1.58v1.77h-.42c-.27,0-.6,0-.6,0l.11-.29c.14,0,.37,0,.37-.23v-.18c0-.17,0-.45,0-1,0,0,0-2,0-2.29,0-.15-.16-.22-.5-.22h-.09s0,0,.12-.29h0l.54,0,.34,0c1.29,1.46,1.3,1.47,1.29,1.48s1.38,1.48,1.75,1.85v-2.63l0-.69h0l.49,0a5,5,0,0,0,.51,0l-.11.3c-.08,0-.35,0-.35.19,0,0,0,1.82,0,2.34s0,1.29,0,1.68l-.41,0Z"/><path class="cls-2" d="M91.56,103.42a1,1,0,0,0-.31,0v1.49a2.06,2.06,0,0,0,.69-.13.81.81,0,0,0,.49-.81c0-.39-.27-.57-.89-.57M94,108a3.45,3.45,0,0,1-.7-.7l-.37-.42L91.24,105c0,.17,0,1.59,0,2s0,.6,0,.6h0l-.45,0c-.28,0-.74,0-.74,0l.11-.3a.53.53,0,0,0,.34-.09.11.11,0,0,0,0-.08l.06-2.11c0-.55,0-1,0-1.22s0-.18,0-.22-.26-.21-.37-.21l0-.3h0c.09,0,.47,0,.76,0h.31l.65,0c.42,0,1.23.17,1.23.82s-.52,1-1,1.18l-.19.05a13.32,13.32,0,0,1,1.09,1.07c.43.44.91.93,1.29,1.3A3.29,3.29,0,0,0,95,108l0,0Z"/><path class="cls-2" d="M86.88,103.49a1.59,1.59,0,0,0-1.48.86,2.33,2.33,0,0,0-.18.92,1.72,1.72,0,0,0,.82,1.64,1.77,1.77,0,0,0,.93.26,1.7,1.7,0,0,0,1.63-1.92,1.59,1.59,0,0,0-.84-1.54,1.91,1.91,0,0,0-.9-.22m-.16,4.19a2.06,2.06,0,0,1-2.17-2.22,2.24,2.24,0,0,1,1.27-2.16,3,3,0,0,1,1.32-.3A2,2,0,0,1,89.29,105a2.52,2.52,0,0,1-2.58,2.63"/><path class="cls-2" d="M95.3,107.28c.12,0,.24,0,.24-.18l0-2.1,0-1.52H94.41c-.25,0-.36.35-.36.36l-.19-.12.25-.65,1.74,0,1.95,0-.07.73-.2,0a.57.57,0,0,0-.1-.27.29.29,0,0,0-.21-.08c-.41,0-.92,0-1,0v.2c0,.28,0,.78,0,1.31s0,1.36,0,1.77v.34c0,.07,0,.11.14.14a.87.87,0,0,0,.24,0h.08l-.1.29h0c-.06,0-.35,0-.73,0a5.54,5.54,0,0,0-.68,0h0Z"/><path class="cls-2" d="M101.7,107.29h.07c.11,0,.29,0,.29-.17v-1.67h-1.34c-.87,0-1.26,0-1.26,0v1.66c0,.06,0,.11.13.14a1,1,0,0,0,.24,0h.07l-.1.3h0c-.06,0-.35,0-.72,0s-.81,0-.81,0l.12-.3h.07c.11,0,.29,0,.29-.17L98.8,105l-.06-1.41c0-.18-.21-.21-.35-.21h-.08l.1-.3h0c.06,0,.34,0,.67,0s.83,0,.83,0l-.11.3c-.17,0-.36,0-.36.21V105h1.27l1.33,0v-1.4c0-.18-.22-.21-.34-.21h-.08l.1-.3h0c.06,0,.34,0,.67,0s.83,0,.83,0l-.11.3c-.17,0-.36,0-.36.21,0,0,0,.1,0,.19,0,.25,0,.7,0,1.2,0,.65,0,1.37,0,1.79,0,.18,0,.31,0,.36s.26.17.37.17h.08l-.11.3h0c-.07,0-.35,0-.72,0s-.81,0-.81,0h0Z"/><path class="cls-2" d="M118.63,105.45l.59,0,.69,0-.25-.58-.21-.51c-.08-.2-.14-.34-.18-.45-.1.27-.64,1.5-.66,1.55h0m-5.78,2.5a4.88,4.88,0,0,0,.48-.43c.24-.25,1.19-1.4,1.59-1.92l.16-.2-.14-.18-.25-.38c-.1-.17-.22-.35-.37-.58-.55-.8-.64-.88-1-.88l.1-.29.46,0,.51,0s.69,1.06,1,1.56l.14.22s0-.1.09-.16l.6-.78.5-.65a.53.53,0,0,0,.08-.18h.83a2.69,2.69,0,0,0-.47.42l-.31.42-.92,1.23-.08.11s0,.07,0,.1l.08.11,1.14,1.64c.07.1.1.14.12.14s0,0,.06-.06l.79-1.7,1.08-2.44h.49s.23.62.75,1.78a24.16,24.16,0,0,0,1.15,2.32.48.48,0,0,0,.4.22l0-.87.32,0s.07.36.07.37.33.27.79.27a.87.87,0,0,0,.67-.26.71.71,0,0,0,.18-.5c0-.47-.35-.72-1.11-.79s-1.22-.46-1.22-1.09a1.46,1.46,0,0,1,.28-.83,1.79,1.79,0,0,1,1.45-.66,1.7,1.7,0,0,1,.59.1,1,1,0,0,1,.38.23l-.06.84-.31,0s-.07-.37-.07-.37-.33-.26-.79-.26a.76.76,0,0,0-.85.69c0,.54.35.78,1.1.85s1.22.46,1.22,1.09a1.46,1.46,0,0,1-.28.83,1.8,1.8,0,0,1-1.45.66,1.69,1.69,0,0,1-.59-.1l-.22,0,0,.08h0c-.07,0-.46,0-.67,0a3,3,0,0,0-.45,0l-.79-1.68h-1.73l-.15.34-.35.76a.17.17,0,0,0,0,.17c.07.1.29.12.39.12l-.06.29h0l-1,0c-.31,0-.62,0-.62,0-.25-.38-.63-.94-.91-1.35l-.19-.29-.06-.1-.12.1-.5.64c-.4.51-.9,1.14-.93,1.19a.41.41,0,0,1-.13.16h-.89Z"/><path class="cls-2" d="M107,107.3c.12,0,.24,0,.24-.18l0-2.1,0-1.52s-.1,0-.53,0h-.59c-.25,0-.37.35-.37.36l-.19-.12.24-.65,1.74,0,1.95,0-.08.73h-.2a.55.55,0,0,0-.09-.26.3.3,0,0,0-.22-.08c-.4,0-.92,0-1,0v.2c0,.27,0,.78,0,1.31s0,1.36,0,1.77v.34c0,.07,0,.11.14.14a.84.84,0,0,0,.24,0h.08l-.1.3h0c-.07,0-.35,0-.73,0a5.5,5.5,0,0,0-.68,0h0Z"/><path class="cls-2" d="M112.53,107.6H112l-1.32,0c-.29,0-.82,0-.82,0l.11-.29a.85.85,0,0,0,.18,0,.29.29,0,0,0,.17-.28c0-.07,0-.22,0-.43,0-.4,0-1,0-1.58s0-.91,0-1.18v-.25c0-.15-.23-.17-.36-.17h-.1l.11-.29h0l.67,0c.51,0,1.53,0,1.53,0,.39,0,.5.1.5.1s0,.26,0,.45v.14s-.26.15-.27.16c0-.22-.1-.44-.71-.44h-.67s0,.11,0,.33V105h1.73l-.2.48h-1.52c0,.19,0,.79,0,.79v.1a6.47,6.47,0,0,0,0,.78h.09l.65,0a4.07,4.07,0,0,0,.58,0l0-.57.39.27v.52a1.05,1.05,0,0,0,0,.26v0h-.35Z"/><path class="cls-2" d="M126.11,103.8a.29.29,0,0,0,.27-.29c0-.21-.12-.31-.37-.31h-.42v1.11h.12v-.5H126l.32.49h.14Zm-.18-.11h-.22v-.4H126c.08,0,.26,0,.26.2S126.09,103.69,125.93,103.69Z"/><path class="cls-2" d="M125.94,102.81a.93.93,0,1,0,.93.93A.93.93,0,0,0,125.94,102.81Zm0,1.78a.84.84,0,0,1-.84-.85.84.84,0,1,1,1.68,0A.84.84,0,0,1,125.94,104.59Z"/><polyline class="cls-2" points="113.54 62.59 111.17 69.13 114.79 69.13 115.68 66.62 119.22 66.62 119.22 84.56 117.21 84.57 115.75 88.6 125.72 88.61 127.21 84.57 124.42 84.56 124.42 66.62 128.58 66.62 128.57 69.13 131.08 69.12 133.45 62.58 113.54 62.59"/><path class="cls-2" d="M108.87,66.61v22h-3.07L90.57,72.55c0,2.13,0,12,0,12h2.82l-1.46,4.06H82.71l1.47-4.06h1.58V66.63H82.4l1.46-4.05h5.65S100.43,74,104.22,78c0-1.23,0-11.35,0-11.35h-2.74l1.44-4.06h9.44l-1.46,4.06-2,0"/><path class="cls-2" d="M67.59,97.9a1.83,1.83,0,0,0-1,.14,6.3,6.3,0,0,0-1.18-2.17l2.17,2A2.29,2.29,0,0,0,67,95.27c-1.93-1.79-5.61-5.16-5.61-5.14a14.38,14.38,0,0,1,1,8.43l1.9.36.23.38a9.59,9.59,0,0,1,2.51.61s.75.52-.05,1.24a4.39,4.39,0,0,0,1.92-.91s.63-.54-.11-1.3l-1.11-1"/><path class="cls-2" d="M57.35,86.28,30.14,60.89A3,3,0,0,1,29.35,58l-2.23,4.9a2.51,2.51,0,0,0,1,3L49.8,83.5l0,.71-21-16.09A2.46,2.46,0,0,1,28,66.07L26.43,69.2c-.74,1.76,1.08,2.88,1.84,3.4S49.92,87.66,49.92,87.66l.18.87s-20.25-13.47-21-13.93a2.17,2.17,0,0,1-.83-1.83L26.8,75.95c-.62,1.29,1.15,2.19,1.93,2.66.46.28,11.79,7,21.12,12.58H37.73a3.79,3.79,0,0,1-2.38-.53L37,92.19a3.13,3.13,0,0,0,2.07,1.17h4.47l.88.38-3.9.3a2.73,2.73,0,0,1-2-.46l1.73,1.69a2.08,2.08,0,0,0,1.7.75c.83-.07,5.72-.88,5.72-.88l.78.35-5.13,1.12a2.68,2.68,0,0,1-2-.34l1.61,1.57c.67.64,1.26,1,3.38.45.84-.24,5-1.56,5-1.56l2.69,1.17A22.59,22.59,0,0,0,60,103.63a1.46,1.46,0,0,0-.1,1.65,2.86,2.86,0,0,1,2.75-1.62c.82.12.6,1.12.63,1.08.51-.64.92-1.41.41-2.07s-2.21-.11-2.21-.11l-1.55-2.83,2.1-1.2c1.15-7.3-4.7-12.26-4.7-12.26"/><path class="cls-2" d="M73.39,62.58l-1.5,4.05h2.53V78.39c0,2.16-.39,3.37-1.45,4.44a5.32,5.32,0,0,1-3.69,1.37A6,6,0,0,1,65,82.59c-1-1-1.47-2.59-1.47-4.93V62.58l-7.34,0-1.49,4,3.13,0v11.2c0,.06,0,.11,0,.16-.79-1-1.51-1.79-1.89-2.24l-13-14.6a2.13,2.13,0,0,1-.68-2.23l-1.47,3.3c-.33.91.28,1.5.74,2S55.23,78.62,55.23,78.62l-.09.76L42.58,66.83c-1-1-.73-1.82-.69-1.93l-1.35,3c-.31.94.66,1.56,1.33,2.21s14.7,13.76,15.84,14.8a16.06,16.06,0,0,1,3.64,5.17,12.35,12.35,0,0,0,.2-3.17,11.66,11.66,0,0,0,7,2.19c6.5,0,10.7-4.2,10.7-10.7l0-11.82H81.1l1.45-4.05Z"/><path class="cls-2" d="M41.89,64.9h0"/><path class="cls-2" d="M132.09,68.77a.13.13,0,0,0,.12-.14c0-.1-.06-.14-.17-.14h-.19V69h.05v-.23H132l.15.23h.06Zm-.08,0h-.1v-.18H132s.12,0,.12.09S132.08,68.73,132,68.73Z"/><path class="cls-2" d="M132,68.32a.43.43,0,1,0,.43.43A.43.43,0,0,0,132,68.32Zm0,.82a.38.38,0,0,1-.39-.39.39.39,0,1,1,.77,0A.38.38,0,0,1,132,69.14Z"/></svg>